HIERARCHY
ROOT Hips
{
	OFFSET 0.000000 71.427986 0.000000
	CHANNELS 6 Xposition Yposition Zposition Xrotation Yrotation Zrotation
	JOINT Pelvis
	{
		OFFSET 0.000000 0.000000 0.000000
		CHANNELS 3 Xrotation Yrotation Zrotation
		JOINT LeftUpLeg
		{
			OFFSET 6.797100 -2.508499 -1.318700
			CHANNELS 3 Xrotation Yrotation Zrotation
			JOINT LeftLeg
			{
				OFFSET 0.069008 -29.241863 0.690200
				CHANNELS 3 Xrotation Yrotation Zrotation
				JOINT LeftFoot
				{
					OFFSET -0.069008 -29.568123 -0.266800
					CHANNELS 3 Xrotation Yrotation Zrotation
					JOINT LeftToeBase
					{
						OFFSET 3.145500 -8.631000 16.059900
						CHANNELS 3 Xrotation Yrotation Zrotation
						End Site
						{
							OFFSET 0.000000 18.501587 0.000000
						}
					}
				}
			}
			JOINT Left_ShortSleeve
			{
				OFFSET 0.265923 -10.480953 1.153800
				CHANNELS 3 Xrotation Yrotation Zrotation
				End Site
				{
					OFFSET 1.725763 19.823879 0.000000
				}
			}
		}
		JOINT RightUpLeg
		{
			OFFSET -6.797100 -2.508499 -1.318700
			CHANNELS 3 Xrotation Yrotation Zrotation
			JOINT RightLeg
			{
				OFFSET -0.082453 -29.241932 0.688000
				CHANNELS 3 Xrotation Yrotation Zrotation
				JOINT RightFoot
				{
					OFFSET 0.082453 -29.568058 -0.264600
					CHANNELS 3 Xrotation Yrotation Zrotation
					JOINT RightToeBase
					{
						OFFSET -3.115300 -8.682800 16.113400
						CHANNELS 3 Xrotation Yrotation Zrotation
						End Site
						{
							OFFSET 0.000000 18.567114 0.000000
						}
					}
				}
			}
			JOINT Right_ShortSleeve
			{
				OFFSET -0.265923 -10.480953 1.153800
				CHANNELS 3 Xrotation Yrotation Zrotation
				End Site
				{
					OFFSET -1.725766 19.823910 0.000000
				}
			}
		}
	}
	JOINT Spine
	{
		OFFSET 0.000000 13.368103 0.470500
		CHANNELS 3 Xrotation Yrotation Zrotation
		JOINT Spine1
		{
			OFFSET 0.147000 13.837402 0.538800
			CHANNELS 3 Xrotation Yrotation Zrotation
			JOINT Spine2
			{
				OFFSET 0.168000 16.242897 -1.435500
				CHANNELS 3 Xrotation Yrotation Zrotation
				JOINT Neck
				{
					OFFSET 0.217200 18.631500 -1.679100
					CHANNELS 3 Xrotation Yrotation Zrotation
					JOINT Head
					{
						OFFSET 0.000000 6.599396 1.385900
						CHANNELS 3 Xrotation Yrotation Zrotation
						JOINT Hat
						{
							OFFSET -0.532200 27.220596 -10.096100
							CHANNELS 3 Xrotation Yrotation Zrotation
							End Site
							{
								OFFSET 0.000000 22.029861 0.000000
							}
						}
						JOINT HairD
						{
							OFFSET -10.777400 17.437393 -1.325900
							CHANNELS 3 Xrotation Yrotation Zrotation
							JOINT HairD1
							{
								OFFSET -3.290299 -11.051193 1.062200
								CHANNELS 3 Xrotation Yrotation Zrotation
								End Site
								{
									OFFSET 0.000000 11.579437 0.000000
								}
							}
						}
						JOINT HairB
						{
							OFFSET -10.777400 17.437393 1.467900
							CHANNELS 3 Xrotation Yrotation Zrotation
							JOINT HairB1
							{
								OFFSET -1.561200 -12.956299 3.590200
								CHANNELS 3 Xrotation Yrotation Zrotation
								End Site
								{
									OFFSET 0.000000 13.534866 0.000000
								}
							}
						}
						JOINT HairA
						{
							OFFSET 9.713100 17.437393 1.467900
							CHANNELS 3 Xrotation Yrotation Zrotation
							JOINT HairA1
							{
								OFFSET 1.561200 -12.956299 3.590200
								CHANNELS 3 Xrotation Yrotation Zrotation
								End Site
								{
									OFFSET 0.000000 13.534866 0.000000
								}
							}
						}
						JOINT HairC
						{
							OFFSET 9.713100 17.437393 -1.325900
							CHANNELS 3 Xrotation Yrotation Zrotation
							JOINT HairC1
							{
								OFFSET 3.290300 -11.051193 1.062200
								CHANNELS 3 Xrotation Yrotation Zrotation
								End Site
								{
									OFFSET 0.000000 11.579437 0.000000
								}
							}
						}
					}
				}
				JOINT LeftShoulder
				{
					OFFSET 5.101800 15.108002 -2.763700
					CHANNELS 3 Xrotation Yrotation Zrotation
					JOINT LeftArm
					{
						OFFSET 9.825497 2.506317 -1.597400
						CHANNELS 3 Xrotation Yrotation Zrotation
						JOINT LeftForeArm
						{
							OFFSET 21.966244 0.000000 0.000000
							CHANNELS 3 Xrotation Yrotation Zrotation
							JOINT LeftHand
							{
								OFFSET 33.879036 0.000000 0.000000
								CHANNELS 3 Xrotation Yrotation Zrotation
								JOINT LeftHandThumb1
								{
									OFFSET 6.715286 -2.359680 3.363841
									CHANNELS 3 Xrotation Yrotation Zrotation
									JOINT LeftHandThumb2
									{
										OFFSET 2.507072 -1.447464 1.447461
										CHANNELS 3 Xrotation Yrotation Zrotation
										JOINT LeftHandThumb3
										{
											OFFSET 2.898338 -1.673355 1.673357
											CHANNELS 3 Xrotation Yrotation Zrotation
											End Site
											{
												OFFSET -0.295959 3.727692 -0.131651
											}
										}
									}
								}
								JOINT LeftHandIndex1
								{
									OFFSET 14.190811 -0.254547 3.840278
									CHANNELS 3 Xrotation Yrotation Zrotation
									JOINT LeftHandIndex2
									{
										OFFSET 3.551727 0.000000 -0.000000
										CHANNELS 3 Xrotation Yrotation Zrotation
										JOINT LeftHandIndex3
										{
											OFFSET 2.894196 0.000000 0.000000
											CHANNELS 3 Xrotation Yrotation Zrotation
											End Site
											{
												OFFSET -1.000603 2.690872 0.366626
											}
										}
									}
								}
								JOINT LeftHandMiddle1
								{
									OFFSET 13.776489 0.000000 0.000000
									CHANNELS 3 Xrotation Yrotation Zrotation
									JOINT LeftHandMiddle2
									{
										OFFSET 3.438232 0.000000 0.000000
										CHANNELS 3 Xrotation Yrotation Zrotation
										JOINT LeftHandMiddle3
										{
											OFFSET 3.691551 0.000000 0.000000
											CHANNELS 3 Xrotation Yrotation Zrotation
											End Site
											{
												OFFSET -1.082298 3.499527 0.457670
											}
										}
									}
								}
								JOINT LeftHandRing1
								{
									OFFSET 13.966164 -0.268127 -3.067488
									CHANNELS 3 Xrotation Yrotation Zrotation
									JOINT LeftHandRing2
									{
										OFFSET 3.162567 0.000000 0.000000
										CHANNELS 3 Xrotation Yrotation Zrotation
										JOINT LeftHandRing3
										{
											OFFSET 3.324348 0.000000 0.000000
											CHANNELS 3 Xrotation Yrotation Zrotation
											End Site
											{
												OFFSET -0.861900 3.184998 0.405154
											}
										}
									}
								}
								JOINT LeftHandPinky1
								{
									OFFSET 13.131393 -0.168503 -5.746925
									CHANNELS 3 Xrotation Yrotation Zrotation
									JOINT LeftHandPinky2
									{
										OFFSET 2.849182 0.000000 0.000000
										CHANNELS 3 Xrotation Yrotation Zrotation
										JOINT LeftHandPinky3
										{
											OFFSET 2.805038 0.000000 0.000000
											CHANNELS 3 Xrotation Yrotation Zrotation
											End Site
											{
												OFFSET -0.882500 2.642609 0.325652
											}
										}
									}
								}
							}
							JOINT Left_Sleeve
							{
								OFFSET 6.592125 -0.646545 0.805568
								CHANNELS 3 Xrotation Yrotation Zrotation
								End Site
								{
									OFFSET -0.000179 20.275787 -0.000000
								}
							}
						}
					}
				}
				JOINT RightShoulder
				{
					OFFSET -5.731700 15.108002 -2.763700
					CHANNELS 3 Xrotation Yrotation Zrotation
					JOINT RightArm
					{
						OFFSET -9.825497 2.506317 -1.597400
						CHANNELS 3 Xrotation Yrotation Zrotation
						JOINT RightForeArm
						{
							OFFSET -21.966242 0.000000 0.000000
							CHANNELS 3 Xrotation Yrotation Zrotation
							JOINT RightHand
							{
								OFFSET -33.879032 0.000000 0.000000
								CHANNELS 3 Xrotation Yrotation Zrotation
								JOINT RightHandThumb1
								{
									OFFSET -6.715286 -2.359680 3.363841
									CHANNELS 3 Xrotation Yrotation Zrotation
									JOINT RightHandThumb2
									{
										OFFSET -2.507072 -1.447464 1.447461
										CHANNELS 3 Xrotation Yrotation Zrotation
										JOINT RightHandThumb3
										{
											OFFSET -2.898338 -1.673355 1.673357
											CHANNELS 3 Xrotation Yrotation Zrotation
											End Site
											{
												OFFSET 0.295959 3.727692 -0.131651
											}
										}
									}
								}
								JOINT RightHandIndex1
								{
									OFFSET -14.190811 -0.254547 3.840278
									CHANNELS 3 Xrotation Yrotation Zrotation
									JOINT RightHandIndex2
									{
										OFFSET -3.551727 0.000000 -0.000000
										CHANNELS 3 Xrotation Yrotation Zrotation
										JOINT RightHandIndex3
										{
											OFFSET -2.894196 0.000000 0.000000
											CHANNELS 3 Xrotation Yrotation Zrotation
											End Site
											{
												OFFSET 1.000603 2.690872 0.366626
											}
										}
									}
								}
								JOINT RightHandMiddle1
								{
									OFFSET -13.776489 0.000000 0.000000
									CHANNELS 3 Xrotation Yrotation Zrotation
									JOINT RightHandMiddle2
									{
										OFFSET -3.438232 0.000000 0.000000
										CHANNELS 3 Xrotation Yrotation Zrotation
										JOINT RightHandMiddle3
										{
											OFFSET -3.691551 0.000000 0.000000
											CHANNELS 3 Xrotation Yrotation Zrotation
											End Site
											{
												OFFSET 1.082298 3.499527 0.457670
											}
										}
									}
								}
								JOINT RightHandRing1
								{
									OFFSET -13.966164 -0.268127 -3.067488
									CHANNELS 3 Xrotation Yrotation Zrotation
									JOINT RightHandRing2
									{
										OFFSET -3.162567 0.000000 0.000000
										CHANNELS 3 Xrotation Yrotation Zrotation
										JOINT RightHandRing3
										{
											OFFSET -3.324348 0.000000 0.000000
											CHANNELS 3 Xrotation Yrotation Zrotation
											End Site
											{
												OFFSET 0.861900 3.184998 0.405154
											}
										}
									}
								}
								JOINT RightHandPinky1
								{
									OFFSET -13.131393 -0.168503 -5.746925
									CHANNELS 3 Xrotation Yrotation Zrotation
									JOINT RightHandPinky2
									{
										OFFSET -2.849182 0.000000 0.000000
										CHANNELS 3 Xrotation Yrotation Zrotation
										JOINT RightHandPinky3
										{
											OFFSET -2.805038 0.000000 0.000000
											CHANNELS 3 Xrotation Yrotation Zrotation
											End Site
											{
												OFFSET 0.882500 2.642609 0.325652
											}
										}
									}
								}
							}
							JOINT Right_Sleeve
							{
								OFFSET -6.592125 -0.646545 0.805568
								CHANNELS 3 Xrotation Yrotation Zrotation
								End Site
								{
									OFFSET 0.000179 20.275787 -0.000000
								}
							}
						}
					}
				}
				JOINT Bind_Right_JacketString
				{
					OFFSET -3.534800 11.969597 7.200700
					CHANNELS 3 Xrotation Yrotation Zrotation
					JOINT Bind_Right_JacketString1
					{
						OFFSET -0.319900 -6.102600 2.794100
						CHANNELS 3 Xrotation Yrotation Zrotation
						End Site
						{
							OFFSET 0.000000 6.719452 0.000000
						}
					}
				}
				JOINT Bind_Left_JacketString
				{
					OFFSET 2.904800 11.969597 7.200700
					CHANNELS 3 Xrotation Yrotation Zrotation
					JOINT Bind_Left_JacketString1
					{
						OFFSET 0.364800 -5.904503 3.186800
						CHANNELS 3 Xrotation Yrotation Zrotation
						End Site
						{
							OFFSET 0.000000 6.719513 0.000000
						}
					}
				}
				JOINT HairE
				{
					OFFSET 5.915200 17.612701 -11.592200
					CHANNELS 3 Xrotation Yrotation Zrotation
					JOINT HairE1
					{
						OFFSET 0.289200 -7.171898 -1.284500
						CHANNELS 3 Xrotation Yrotation Zrotation
						End Site
						{
							OFFSET 0.000000 7.291756 0.000000
						}
					}
				}
				JOINT HairF
				{
					OFFSET -0.864800 17.612701 -11.592200
					CHANNELS 3 Xrotation Yrotation Zrotation
					JOINT HairF1
					{
						OFFSET 0.000000 -14.087097 -2.127501
						CHANNELS 3 Xrotation Yrotation Zrotation
						End Site
						{
							OFFSET 0.000000 14.246841 0.000000
						}
					}
				}
				JOINT HairG
				{
					OFFSET -8.087700 17.612701 -11.592200
					CHANNELS 3 Xrotation Yrotation Zrotation
					JOINT HairG1
					{
						OFFSET -0.293600 -6.081398 -0.910100
						CHANNELS 3 Xrotation Yrotation Zrotation
						End Site
						{
							OFFSET 0.000000 6.156120 0.000000
						}
					}
				}
			}
		}
	}
	JOINT Pouch
	{
		OFFSET 0.000000 4.394501 10.847300
		CHANNELS 3 Xrotation Yrotation Zrotation
		End Site
		{
			OFFSET 0.000000 21.880577 0.000000
		}
	}
	JOINT Bag
	{
		OFFSET -13.229000 4.813004 -0.593300
		CHANNELS 3 Xrotation Yrotation Zrotation
		End Site
		{
			OFFSET 0.000000 21.880577 0.000000
		}
	}
	JOINT OccupyGuyFacialAnim_Joint
	{
		OFFSET 1.000000 -70.206398 -1.655000
		CHANNELS 3 Xrotation Yrotation Zrotation
		End Site
		{
			OFFSET 0.000000 21.880577 0.000000
		}
	}
}
MOTION
Frames: 5
Frame Time: 0.033333
-0.695848 33.828976 0.687046 -40.518663 -32.534950 -19.956827 0.000001 0.000001 -0.000000 -67.157664 -2.003790 24.199142 121.065977 -9.264762 -0.569571 -19.084220 -5.900250 0.655553 -0.000000 -0.000001 0.000000 0.000000 -0.000000 -0.000000 -16.785320 24.415109 -8.748215 143.837978 9.064756 1.048163 -64.104993 -20.763818 22.012071 -0.000001 -0.000001 0.000002 -0.000001 -0.000001 -0.000003 58.812676 2.807160 1.552149 10.734610 0.744717 -4.521336 17.520053 -0.085148 -4.562560 -10.626378 7.119777 2.460944 -15.542305 20.390662 10.545781 -0.000001 -0.000000 -0.000001 -0.000001 -0.000000 -0.000001 -0.000001 -0.000000 -0.000002 -0.000001 -0.000000 -0.000001 -0.000002 0.000001 -0.000001 -0.000001 -0.000000 -0.000001 -0.000002 0.000001 -0.000001 -0.000001 -0.000000 -0.000001 -0.000001 -0.000000 -0.000001 -37.559043 -4.830603 1.310667 -73.285908 -19.463819 -69.165412 -0.000007 -49.482648 -0.000018 -122.217534 3.139992 22.355298 4.709205 9.560377 3.111993 19.473173 -1.474925 7.636922 -0.000001 0.000002 -0.000000 -0.212816 3.933736 -36.747128 2.942134 5.078893 -60.144604 -0.000001 0.000000 -0.000002 0.405917 5.507061 -52.453169 3.387133 5.308613 -65.057463 0.000002 0.000001 0.000001 -0.074386 5.736763 -61.061420 4.055028 5.569525 -72.094935 0.000004 -0.000000 0.000002 -6.565573 4.545155 -72.425215 3.299620 5.267223 -64.107814 -0.000001 0.000000 0.000001 -0.000000 -0.000002 -0.000003 -42.139822 -9.769751 -7.575438 -51.815663 45.272126 94.913859 0.000097 103.657471 -0.000080 -37.420031 -24.461429 -24.583528 8.377122 -4.904143 11.022001 21.620202 -18.183908 -18.379221 -0.000001 -0.000001 0.000000 -0.920052 1.683583 12.434967 0.748127 -2.533463 32.898286 -0.000000 -0.000001 0.000000 3.413051 -7.186272 51.650239 6.296803 -4.359581 110.634660 -0.000001 -0.000000 -0.000004 -3.349060 -2.600408 57.010585 5.440869 -4.590898 99.698140 0.000000 0.000000 -0.000002 -3.996444 -3.303954 64.593843 4.058842 -4.618659 82.610496 -0.000000 0.000001 -0.000003 -0.000000 0.000006 0.000000 0.000000 0.000001 -0.000001 0.000000 0.000001 -0.000001 0.000000 0.000001 -0.000001 0.000000 0.000001 -0.000001 0.000000 0.000001 -0.000001 0.000000 0.000001 -0.000001 0.000000 0.000001 -0.000001 0.000000 0.000001 -0.000001 0.000000 0.000001 -0.000001 0.000000 0.000001 -0.000001 0.000001 0.000001 -0.000000 0.000001 0.000001 -0.000000 0.000001 0.000001 -0.000000 
-0.344196 34.135185 0.751568 -38.299982 -32.025524 -18.484189 -0.000001 -0.000000 -0.000001 -68.705440 -1.381728 22.485046 120.349559 -7.163823 -0.554385 -18.729337 -7.148495 0.448243 -0.000000 0.000000 0.000000 0.000001 -0.000000 -0.000000 -19.575387 27.510510 -9.842922 145.427363 9.929481 0.731019 -58.259499 -20.642596 22.286120 0.000001 -0.000003 0.000000 0.000003 0.000001 -0.000004 57.471145 1.910140 1.557396 10.560472 0.633268 -3.718597 16.765615 -0.655285 -4.724781 -9.967002 7.141652 2.297222 -17.500685 21.051898 10.847413 -0.000001 0.000000 -0.000000 -0.000001 0.000000 -0.000000 -0.000001 0.000000 -0.000001 -0.000001 0.000000 -0.000000 -0.000003 0.000000 0.000002 -0.000001 0.000000 -0.000000 -0.000003 0.000000 0.000002 -0.000001 0.000000 -0.000000 -0.000001 0.000000 -0.000000 -35.493051 -6.472543 2.912788 -71.869286 -18.024065 -66.938490 -0.000005 -52.878812 -0.000009 -121.678877 1.014570 23.196157 4.885849 9.091106 2.562421 18.681312 -1.431540 7.286860 -0.000003 -0.000000 -0.000002 -0.328686 3.787202 -36.867876 3.013787 5.119188 -60.950723 0.000002 0.000001 -0.000002 0.432000 5.522456 -52.366750 3.453821 5.339003 -65.776265 0.000004 0.000001 -0.000001 0.042922 5.782419 -60.786723 4.111987 5.587525 -72.680726 -0.000000 -0.000001 0.000001 -6.083503 4.585195 -71.849021 3.365616 5.298605 -64.824533 -0.000002 -0.000002 0.000001 0.000001 -0.000003 -0.000000 -39.375173 -8.108051 -5.561590 -49.712784 44.363113 91.228241 0.000072 104.161280 -0.000085 -36.988070 -23.792272 -22.414328 8.932195 -4.465695 11.410887 20.888441 -18.053904 -19.089568 -0.000003 -0.000002 0.000000 -0.918702 1.672917 12.445379 0.787276 -2.592932 33.773814 -0.000000 -0.000001 0.000000 3.307105 -7.097887 51.772520 6.267014 -4.370654 110.243297 0.000001 0.000000 -0.000002 -2.951004 -2.894504 57.272219 5.334724 -4.607732 98.374600 -0.000001 -0.000000 0.000003 -3.515973 -3.582430 64.957175 3.975477 -4.607115 81.573735 0.000000 0.000002 0.000001 -0.000002 -0.000000 -0.000001 -0.000000 -0.000000 -0.000001 0.000002 0.000001 -0.000002 -0.000000 -0.000000 -0.000001 -0.000000 -0.000000 -0.000001 -0.000000 -0.000000 -0.000001 0.000002 0.000001 -0.000001 -0.000000 -0.000000 -0.000001 -0.000000 -0.000000 -0.000001 -0.000000 -0.000000 -0.000001 0.000002 0.000001 -0.000001 -0.000001 -0.000000 -0.000001 -0.000001 -0.000000 -0.000001 -0.000001 -0.000000 -0.000001 
-0.208357 34.452526 0.810572 -36.136806 -31.480844 -17.040463 -0.000003 -0.000001 -0.000000 -69.997056 -0.999178 21.100993 119.651117 -5.380522 -0.550001 -18.520177 -8.495750 0.114257 -0.000000 -0.000001 0.000000 -0.000001 -0.000000 -0.000001 -22.948146 30.161391 -10.395316 147.144541 9.364856 0.418230 -51.233672 -19.800529 22.020535 -0.000001 -0.000002 0.000002 -0.000001 0.000003 -0.000001 55.972997 0.999349 1.481451 10.365448 0.504572 -3.028906 15.951992 -1.079610 -4.542264 -9.314838 7.161334 2.134878 -19.649770 21.765262 10.846516 0.000003 -0.000000 0.000001 0.000003 -0.000000 0.000001 0.000003 -0.000000 0.000000 0.000003 -0.000000 0.000001 0.000001 0.000001 0.000001 0.000003 -0.000000 0.000001 0.000001 0.000001 0.000001 0.000003 -0.000000 0.000001 0.000003 -0.000000 0.000001 -33.527063 -7.516829 3.892992 -70.479691 -17.177501 -65.038823 -0.000019 -55.973253 -0.000020 -121.170793 -1.090447 23.967025 4.951295 8.842604 2.096741 17.890939 -1.384409 6.934113 -0.000002 -0.000005 0.000002 -0.445143 3.641123 -36.988876 3.085992 5.158475 -61.756945 -0.000001 0.000000 -0.000002 0.458029 5.537961 -52.280351 3.520902 5.368533 -66.495115 0.000002 0.000001 0.000001 0.159661 5.829265 -60.511999 4.169139 5.604935 -73.266654 -0.000001 0.000001 -0.000001 -5.603594 4.635012 -71.272054 3.432001 5.329174 -65.541307 0.000003 -0.000001 0.000001 -0.000001 0.000002 0.000002 -36.641735 -6.285188 -3.713506 -47.695348 43.382906 87.644837 0.000286 104.670832 -0.000314 -36.640960 -23.154748 -20.198690 9.482673 -4.019661 11.794360 20.155540 -17.912849 -19.795575 -0.000001 0.000000 -0.000000 -0.917387 1.662259 12.455774 0.827347 -2.651770 34.649396 0.000001 -0.000001 0.000000 3.200771 -7.009997 51.894924 6.237167 -4.381534 109.851900 0.000000 -0.000000 -0.000001 -2.550261 -3.184866 57.536311 5.228240 -4.622108 97.050964 -0.000001 -0.000001 -0.000001 -3.032100 -3.854690 65.323472 3.892307 -4.594052 80.537001 -0.000001 0.000000 -0.000001 0.000000 0.000005 -0.000001 -0.000000 0.000001 -0.000001 -0.000001 -0.000001 -0.000001 -0.000000 0.000001 -0.000001 -0.000000 0.000001 -0.000001 -0.000000 0.000001 -0.000001 -0.000001 -0.000001 -0.000001 -0.000000 0.000001 -0.000001 -0.000000 0.000001 -0.000001 -0.000000 0.000001 -0.000001 -0.000001 -0.000001 -0.000001 -0.000003 -0.000001 -0.000000 -0.000003 -0.000001 -0.000000 -0.000003 -0.000001 -0.000000 
-0.282589 34.669910 0.869141 -33.966425 -30.883418 -15.603091 -0.000002 0.000001 0.000001 -71.362342 -0.917844 20.041775 119.173810 -3.962459 -0.551994 -18.391379 -9.898508 -0.294445 -0.000000 -0.000001 -0.000000 -0.000001 -0.000000 -0.000000 -27.488052 32.752451 -10.212011 148.863549 8.286794 0.135740 -42.236093 -18.346405 21.437317 0.000001 0.000002 0.000001 0.000000 0.000000 0.000002 54.189071 0.082097 1.271485 10.129306 0.345557 -2.546073 15.047352 -1.242903 -3.746960 -8.673484 7.179582 1.974995 -21.880484 22.455014 10.226094 -0.000001 -0.000001 -0.000001 -0.000001 -0.000001 -0.000001 -0.000001 -0.000001 -0.000001 -0.000001 -0.000001 -0.000001 -0.000001 0.000000 -0.000001 -0.000001 -0.000001 -0.000001 -0.000001 0.000000 -0.000001 -0.000001 -0.000001 -0.000001 -0.000001 -0.000001 -0.000001 -31.673787 -8.109526 4.318957 -69.019027 -16.827394 -63.342901 0.000022 -58.841363 0.000029 -120.705698 -3.196062 24.671832 4.925441 8.785851 1.704285 17.102147 -1.333474 6.578713 0.000003 0.000001 -0.000001 -0.562201 3.495517 -37.110125 3.158751 5.196743 -62.563283 -0.000005 -0.000001 -0.000002 0.483994 5.553520 -52.193936 3.588360 5.397229 -67.214041 0.000001 0.000000 -0.000001 0.275821 5.877263 -60.237289 4.226431 5.621767 -73.852575 -0.000001 0.000002 0.000000 -5.125967 4.694534 -70.694384 3.498757 5.358883 -66.258176 -0.000001 0.000001 -0.000004 -0.000000 0.000000 -0.000003 -33.949435 -4.320974 -2.047653 -45.729698 42.333150 84.141742 0.000178 105.182236 -0.000164 -36.378909 -22.537777 -17.973653 10.028564 -3.566217 12.172362 19.421790 -17.760753 -20.497077 -0.000000 0.000000 -0.000000 -0.916046 1.651602 12.466158 0.868295 -2.710027 35.525074 -0.000001 0.000000 0.000000 3.094093 -6.922562 52.017450 6.207208 -4.392200 109.460461 0.000001 0.000000 -0.000004 -2.146778 -3.471396 57.802791 5.121421 -4.634017 95.727239 -0.000000 -0.000001 -0.000000 -2.544859 -4.120739 65.692650 3.809388 -4.579528 79.500274 -0.000000 0.000001 -0.000001 -0.000000 -0.000002 -0.000001 -0.000000 0.000000 0.000001 -0.000001 0.000002 -0.000001 -0.000000 0.000000 -0.000001 -0.000000 0.000000 -0.000001 -0.000000 0.000000 0.000001 -0.000001 0.000002 -0.000001 -0.000000 0.000000 -0.000001 -0.000000 0.000000 -0.000001 -0.000000 0.000000 0.000001 -0.000001 0.000002 -0.000001 -0.000002 0.000001 0.000001 -0.000002 0.000001 0.000001 -0.000002 0.000001 0.000001 
-0.466090 34.796383 0.931602 -31.735439 -30.210852 -14.154584 -0.000000 0.000000 -0.000000 -72.906737 -1.034381 19.089277 118.871479 -2.735296 -0.558786 -18.289290 -11.307509 -0.761566 -0.000000 0.000001 0.000000 0.000001 0.000000 -0.000000 -33.430238 34.506365 -8.882757 150.218372 5.947333 -0.119688 -31.574551 -16.194643 19.466731 -0.000000 0.000002 0.000001 -0.000002 0.000001 0.000002 52.245435 -0.833498 0.987315 9.872371 0.170452 -2.180126 14.086201 -1.330118 -2.770989 -8.038366 7.197605 1.816659 -24.029128 23.084458 9.330635 0.000001 0.000000 0.000001 0.000001 0.000000 0.000001 0.000001 0.000000 0.000000 0.000001 0.000000 -0.000001 0.000001 0.000000 -0.000002 0.000001 0.000000 -0.000001 0.000001 0.000000 -0.000002 0.000001 0.000000 0.000001 0.000001 0.000000 0.000001 -29.924770 -8.381468 4.276349 -67.422812 -16.863618 -61.754404 0.000051 -61.530633 0.000049 -120.296256 -5.309135 25.302603 4.826075 8.890480 1.376428 16.314974 -1.278597 6.220610 0.000002 -0.000000 -0.000000 -0.679852 3.350399 -37.231587 3.232058 5.234025 -63.369682 0.000000 0.000002 -0.000002 0.509905 5.569196 -52.107510 3.656165 5.425095 -67.933021 0.000006 0.000000 0.000002 0.391394 5.926499 -59.962579 4.283901 5.638009 -74.438502 0.000000 0.000001 0.000000 -4.650777 4.763767 -70.116195 3.565886 5.387788 -66.975066 -0.000001 -0.000002 0.000003 0.000001 0.000005 0.000002 -31.304891 -2.237848 -0.576230 -43.784088 41.209806 80.702080 0.000205 105.691720 -0.000211 -36.198309 -21.928737 -15.776366 10.569874 -3.105429 12.544891 18.687367 -17.597706 -21.193816 -0.000001 -0.000001 -0.000000 -0.914707 1.640954 12.476558 0.910138 -2.767636 36.400831 0.000000 -0.000000 0.000000 2.987037 -6.835631 52.140110 6.177216 -4.402647 109.069064 -0.000001 0.000000 -0.000003 -1.740597 -3.754079 58.071628 5.014362 -4.643481 94.403562 0.000001 -0.000001 -0.000001 -2.054298 -4.380481 66.064636 3.726747 -4.563501 78.463615 0.000002 -0.000001 -0.000001 0.000000 0.000002 -0.000002 0.000002 -0.000003 0.000003 0.000002 -0.000002 0.000001 0.000002 -0.000003 0.000003 0.000002 -0.000003 0.000003 0.000002 -0.000003 0.000003 0.000002 -0.000002 0.000001 0.000002 -0.000003 0.000003 0.000002 -0.000003 0.000003 0.000002 -0.000003 0.000003 0.000002 -0.000002 0.000001 -0.000000 0.000000 -0.000000 -0.000000 0.000000 -0.000000 -0.000000 0.000000 -0.000000 
